<mxfile host="app.diagrams.net" agent="Mozilla/5.0 (Windows NT 10.0; Win64; x64) AppleWebKit/537.36 (KHTML, like Gecko) Chrome/129.0.0.0 Safari/537.36 Edg/129.0.0.0" version="24.7.17">
  <diagram id="R2lEEEUBdFMjLlhIrx00" name="Page-1">
    <mxGraphModel dx="1042" dy="565" grid="1" gridSize="10" guides="1" tooltips="1" connect="1" arrows="1" fold="1" page="1" pageScale="1" pageWidth="850" pageHeight="1100" math="0" shadow="0" extFonts="Permanent Marker^https://fonts.googleapis.com/css?family=Permanent+Marker">
      <root>
        <mxCell id="0" />
        <mxCell id="1" parent="0" />
        <mxCell id="qm72RA9vOt4ma77FHGuy-1" value="SINH_VIEN" style="swimlane;fontStyle=0;childLayout=stackLayout;horizontal=1;startSize=30;horizontalStack=0;resizeParent=1;resizeParentMax=0;resizeLast=0;collapsible=1;marginBottom=0;whiteSpace=wrap;html=1;" vertex="1" parent="1">
          <mxGeometry x="310" y="220" width="140" height="90" as="geometry" />
        </mxCell>
        <mxCell id="qm72RA9vOt4ma77FHGuy-2" value="SV_MSSV" style="text;strokeColor=none;fillColor=none;align=left;verticalAlign=middle;spacingLeft=4;spacingRight=4;overflow=hidden;points=[[0,0.5],[1,0.5]];portConstraint=eastwest;rotatable=0;whiteSpace=wrap;html=1;" vertex="1" parent="qm72RA9vOt4ma77FHGuy-1">
          <mxGeometry y="30" width="140" height="30" as="geometry" />
        </mxCell>
        <mxCell id="qm72RA9vOt4ma77FHGuy-3" value="SV_HoTen" style="text;strokeColor=none;fillColor=none;align=left;verticalAlign=middle;spacingLeft=4;spacingRight=4;overflow=hidden;points=[[0,0.5],[1,0.5]];portConstraint=eastwest;rotatable=0;whiteSpace=wrap;html=1;" vertex="1" parent="qm72RA9vOt4ma77FHGuy-1">
          <mxGeometry y="60" width="140" height="30" as="geometry" />
        </mxCell>
        <mxCell id="qm72RA9vOt4ma77FHGuy-6" value="TAI_KHOAN_MAY_TINH" style="swimlane;fontStyle=0;childLayout=stackLayout;horizontal=1;startSize=30;horizontalStack=0;resizeParent=1;resizeParentMax=0;resizeLast=0;collapsible=1;marginBottom=0;whiteSpace=wrap;html=1;" vertex="1" parent="1">
          <mxGeometry x="550" y="220" width="140" height="90" as="geometry" />
        </mxCell>
        <mxCell id="qm72RA9vOt4ma77FHGuy-7" value="TK_Ten" style="text;strokeColor=none;fillColor=none;align=left;verticalAlign=middle;spacingLeft=4;spacingRight=4;overflow=hidden;points=[[0,0.5],[1,0.5]];portConstraint=eastwest;rotatable=0;whiteSpace=wrap;html=1;" vertex="1" parent="qm72RA9vOt4ma77FHGuy-6">
          <mxGeometry y="30" width="140" height="30" as="geometry" />
        </mxCell>
        <mxCell id="qm72RA9vOt4ma77FHGuy-8" value="TK_MatKhau" style="text;strokeColor=none;fillColor=none;align=left;verticalAlign=middle;spacingLeft=4;spacingRight=4;overflow=hidden;points=[[0,0.5],[1,0.5]];portConstraint=eastwest;rotatable=0;whiteSpace=wrap;html=1;" vertex="1" parent="qm72RA9vOt4ma77FHGuy-6">
          <mxGeometry y="60" width="140" height="30" as="geometry" />
        </mxCell>
        <mxCell id="qm72RA9vOt4ma77FHGuy-11" style="edgeStyle=orthogonalEdgeStyle;rounded=0;orthogonalLoop=1;jettySize=auto;html=1;entryX=0;entryY=0.5;entryDx=0;entryDy=0;endArrow=ERmandOne;endFill=0;startArrow=ERmandOne;startFill=0;" edge="1" parent="1" source="qm72RA9vOt4ma77FHGuy-3" target="qm72RA9vOt4ma77FHGuy-8">
          <mxGeometry relative="1" as="geometry" />
        </mxCell>
        <mxCell id="qm72RA9vOt4ma77FHGuy-12" value="QUY TẮC 4:&amp;nbsp;" style="text;html=1;align=center;verticalAlign=middle;resizable=0;points=[];autosize=1;strokeColor=none;fillColor=none;" vertex="1" parent="1">
          <mxGeometry x="220" y="170" width="90" height="30" as="geometry" />
        </mxCell>
        <mxCell id="qm72RA9vOt4ma77FHGuy-13" value="SINH_VIEN(&lt;b&gt;&lt;u&gt;SV_MSSV&lt;/u&gt;&lt;/b&gt;, SV_HoTen, &lt;i&gt;&lt;strike&gt;TK_Ten&lt;/strike&gt;&lt;/i&gt;)" style="text;html=1;align=center;verticalAlign=middle;resizable=0;points=[];autosize=1;strokeColor=none;fillColor=none;" vertex="1" parent="1">
          <mxGeometry x="50" y="380" width="260" height="30" as="geometry" />
        </mxCell>
        <mxCell id="qm72RA9vOt4ma77FHGuy-14" value="TAI_KHOAN_MAY_TINH(&lt;b&gt;&lt;u&gt;TK_Ten&lt;/u&gt;&lt;/b&gt;, TK_MatKhau, &lt;i&gt;SV_MSSV&lt;/i&gt;)" style="text;html=1;align=center;verticalAlign=middle;resizable=0;points=[];autosize=1;strokeColor=none;fillColor=none;" vertex="1" parent="1">
          <mxGeometry x="5" y="410" width="350" height="30" as="geometry" />
        </mxCell>
        <mxCell id="qm72RA9vOt4ma77FHGuy-15" value="=&amp;gt; Không thêm dữ liệu được vì muốn có thêm 1 sinh viên thì phải có tài khoản&lt;br&gt;Muốn có thêm tài khoản thì phải có sinh viên" style="text;html=1;align=center;verticalAlign=middle;resizable=0;points=[];autosize=1;strokeColor=none;fillColor=none;" vertex="1" parent="1">
          <mxGeometry x="350" y="380" width="440" height="40" as="geometry" />
        </mxCell>
        <mxCell id="qm72RA9vOt4ma77FHGuy-16" value="=&amp;gt; bỏ TK_Ten trong Sinh VIen" style="text;html=1;align=center;verticalAlign=middle;resizable=0;points=[];autosize=1;strokeColor=none;fillColor=none;" vertex="1" parent="1">
          <mxGeometry x="350" y="468" width="180" height="30" as="geometry" />
        </mxCell>
      </root>
    </mxGraphModel>
  </diagram>
</mxfile>
